<svg xmlns="http://www.w3.org/2000/svg" viewBox="0 0 400 300" fill="none"><defs>
<linearGradient id="body" x1="0" y1="0" x2="0" y2="1"><stop offset="0" stop-color="#4a4646"/><stop offset="1" stop-color="#232121"/></linearGradient>
<linearGradient id="dark" x1="0" y1="0" x2="0" y2="1"><stop offset="0" stop-color="#2d2b2b"/><stop offset="1" stop-color="#151414"/></linearGradient>
<linearGradient id="metal" x1="0" y1="0" x2="1" y2="0"><stop offset="0" stop-color="#5b5757"/><stop offset=".5" stop-color="#8a8585"/><stop offset="1" stop-color="#3b3838"/></linearGradient>
<linearGradient id="screen" x1="0" y1="0" x2="1" y2="1"><stop offset="0" stop-color="#1a0503"/><stop offset=".55" stop-color="#7c1405"/><stop offset="1" stop-color="#ec3013"/></linearGradient>
<radialGradient id="floor" cx=".5" cy=".5" r=".5"><stop offset="0" stop-color="#ec3013" stop-opacity=".38"/><stop offset="1" stop-color="#ec3013" stop-opacity="0"/></radialGradient>
<filter id="glow" x="-30%" y="-30%" width="160%" height="160%"><feGaussianBlur stdDeviation="4"/></filter>
<filter id="soft" x="-30%" y="-30%" width="160%" height="160%"><feGaussianBlur stdDeviation="10"/></filter>
</defs>
<ellipse cx="200" cy="266" rx="120" ry="12" fill="url(#floor)"/>
<rect x="75" y="68" width="250" height="150" rx="6" fill="#ec3013" opacity=".3" filter="url(#soft)"/><rect x="75" y="68" width="250" height="150" rx="6" fill="url(#dark)" stroke="#f8f4f4" stroke-opacity=".18"/><rect x="80" y="73" width="240" height="136" rx="2" fill="url(#screen)"/><path d="M80 176.0 C150.0 135.5 225.0 210.5 320 143.0 V209 H80Z" fill="#0b0202" opacity=".55"/><circle cx="245.0" cy="122.0" r="18.0" fill="#ffd0c4" opacity=".85"/><circle cx="245.0" cy="122.0" r="30.0" fill="#ffc4b8" opacity=".25"/><rect x="197.0" y="218" width="6" height="44" fill="url(#metal)"/><path d="M148.0 264 C160.0 254 240.0 254 252.0 264Z" fill="url(#metal)"/><rect x="148.0" y="263" width="104" height="4" rx="2" fill="#2d2b2b"/><rect x="197.0" y="214" width="6" height="2" fill="#ec3013"/>
</svg>