<svg xmlns="http://www.w3.org/2000/svg" viewBox="0 0 400 300" fill="none"><defs>
<linearGradient id="body" x1="0" y1="0" x2="0" y2="1"><stop offset="0" stop-color="#4a4646"/><stop offset="1" stop-color="#232121"/></linearGradient>
<linearGradient id="dark" x1="0" y1="0" x2="0" y2="1"><stop offset="0" stop-color="#2d2b2b"/><stop offset="1" stop-color="#151414"/></linearGradient>
<linearGradient id="metal" x1="0" y1="0" x2="1" y2="0"><stop offset="0" stop-color="#5b5757"/><stop offset=".5" stop-color="#8a8585"/><stop offset="1" stop-color="#3b3838"/></linearGradient>
<linearGradient id="screen" x1="0" y1="0" x2="1" y2="1"><stop offset="0" stop-color="#1a0503"/><stop offset=".55" stop-color="#7c1405"/><stop offset="1" stop-color="#ec3013"/></linearGradient>
<radialGradient id="floor" cx=".5" cy=".5" r=".5"><stop offset="0" stop-color="#ec3013" stop-opacity=".38"/><stop offset="1" stop-color="#ec3013" stop-opacity="0"/></radialGradient>
<filter id="glow" x="-30%" y="-30%" width="160%" height="160%"><feGaussianBlur stdDeviation="4"/></filter>
<filter id="soft" x="-30%" y="-30%" width="160%" height="160%"><feGaussianBlur stdDeviation="10"/></filter>
</defs>
<ellipse cx="200" cy="258" rx="90" ry="14" fill="url(#floor)"/>
<rect x="170" y="52" width="60" height="96" rx="30" fill="#ec3013" opacity=".3" filter="url(#soft)"/><rect x="168" y="50" width="64" height="100" rx="32" fill="url(#metal)" stroke="#f8f4f4" stroke-opacity=".18"/><rect x="174" y="56" width="52" height="88" rx="26" fill="#242222"/><path d="M176 70 H224" stroke="#151414" stroke-width="1.3"/><path d="M176 79 H224" stroke="#151414" stroke-width="1.3"/><path d="M176 88 H224" stroke="#151414" stroke-width="1.3"/><path d="M176 97 H224" stroke="#151414" stroke-width="1.3"/><path d="M176 106 H224" stroke="#151414" stroke-width="1.3"/><path d="M176 115 H224" stroke="#151414" stroke-width="1.3"/><path d="M176 124 H224" stroke="#151414" stroke-width="1.3"/><path d="M176 133 H224" stroke="#151414" stroke-width="1.3"/><rect x="168" y="150" width="64" height="8" rx="3" fill="#2d2b2b"/><circle cx="200" cy="170" r="6" fill="#ec3013"/><path d="M150 116 C150 170 250 170 250 116" stroke="#5b5757" stroke-width="5" stroke-linecap="round"/><rect x="196" y="176" width="8" height="52" fill="url(#metal)"/><path d="M200 228 C200 250 262 236 288 252" stroke="#3b3838" stroke-width="8" stroke-linecap="round"/><rect x="150" y="248" width="100" height="10" rx="4" fill="url(#body)"/><rect x="110" y="84" width="34" height="44" rx="4" fill="#151414" stroke="#ec3013" stroke-width="1.2" opacity=".0"/>
</svg>